<svg xmlns="http://www.w3.org/2000/svg" width="48" height="48" viewBox="0 0 48 48">
  <path fill="#FFF" fill-rule="evenodd" d="M4.99408095,0 C6.10191945,0 7,0.897026226 7,2.00494659 L7,21.9950534 C7,23.1023548 6.11344516,24 4.99408095,24 L2.00591905,24 C0.898080551,24 3.88578059e-16,23.1029738 3.88578059e-16,21.9950534 L3.88578059e-16,2.00494659 C3.88578059e-16,0.897645164 0.886554837,0 2.00591905,0 L4.99408095,0 Z M17.9940809,0 C19.1019194,0 20,0.897026226 20,2.00494659 L20,21.9950534 C20,23.1023548 19.1134452,24 17.9940809,24 L15.0059191,24 C13.8980806,24 13,23.1029738 13,21.9950534 L13,2.00494659 C13,0.897645164 13.8865548,0 15.0059191,0 L17.9940809,0 Z" transform="translate(14 12)"/>
</svg>
