<svg xmlns="http://www.w3.org/2000/svg" width="48" height="48" viewBox="0 0 48 48">
  <path fill="#FFF" fill-rule="evenodd" d="M24,17.2145559 C24,16.1120894 24.7703795,15.6816943 25.7206907,16.2518811 L25.7206907,16.2518811 L37.2793093,23.1870522 C38.2355257,23.7607821 38.2296205,24.6816943 37.2793093,25.2518811 L37.2793093,25.2518811 L25.7206907,32.1870522 C24.7644743,32.7607821 24,32.3262347 24,31.2243773 L24,31.2243773 L24,25.418 L12.7206907,32.1870522 C11.8043166,32.7368766 11.0640391,32.3606965 11.0039402,31.3586093 L11,31.2243773 L11,17.2145559 C11,16.1120894 11.7703795,15.6816943 12.7206907,16.2518811 L12.7206907,16.2518811 L24,23.02 Z" transform="matrix(-1 0 0 1 48.994 0)"/>
</svg>
