<?xml version="1.0" encoding="UTF-8"?><svg version="1.1" width="34px" height="34px" viewBox="0 0 34.0 34.0" xmlns="http://www.w3.org/2000/svg" xmlns:xlink="http://www.w3.org/1999/xlink"><defs><clipPath id="i0"><path d="M34,0 L34,34 L0,34 L0,0 L34,0 Z"></path></clipPath><clipPath id="i1"><path d="M1,0 L1,4 L3,4 L3,5 L1,5 L1,9 L0,9 L0,0 L1,0 Z M32,0 L32,9 L31,9 L31,5 L28,5 L28,4 L31,4 L31,0 L32,0 Z M7,4 L7,5 L4,5 L4,4 L7,4 Z M11,4 L11,5 L8,5 L8,4 L11,4 Z M15,4 L15,5 L12,5 L12,4 L15,4 Z M19,4 L19,5 L16,5 L16,4 L19,4 Z M23,4 L23,5 L20,5 L20,4 L23,4 Z M27,4 L27,5 L24,5 L24,4 L27,4 Z"></path></clipPath></defs><g clip-path="url(#i0)"><g transform="translate(1.0 13.0)"><g clip-path="url(#i1)"><polygon points="0,0 32,0 32,9 0,9 0,0" stroke="none" fill="#000000"></polygon></g></g></g></svg>