<?xml version="1.0" encoding="UTF-8"?><svg version="1.1" width="34px" height="34px" viewBox="0 0 34.0 34.0" xmlns="http://www.w3.org/2000/svg" xmlns:xlink="http://www.w3.org/1999/xlink"><defs><clipPath id="i0"><path d="M34,0 L34,34 L0,34 L0,0 L34,0 Z"></path></clipPath><clipPath id="i1"><path d="M5,0 L5,3 L6,3 L6,4 L5,4 L5,7 L0,3.5 L5,0 Z M29,0 L34,3.5 L29,7 L29,4 L27,4 L27,3 L29,3 L29,0 Z M10,3 L10,4 L7,4 L7,3 L10,3 Z M14,3 L14,4 L11,4 L11,3 L14,3 Z M18,3 L18,4 L15,4 L15,3 L18,3 Z M22,3 L22,4 L19,4 L19,3 L22,3 Z M26,3 L26,4 L23,4 L23,3 L26,3 Z"></path></clipPath></defs><g clip-path="url(#i0)"><g transform="translate(0.0 14.0)"><g clip-path="url(#i1)"><polygon points="0,0 34,0 34,7 0,7 0,0" stroke="none" fill="#000000"></polygon></g></g></g></svg>