<?xml version="1.0" encoding="UTF-8"?>
<svg width="36px" height="36px" viewBox="0 0 36 36" version="1.1" xmlns="http://www.w3.org/2000/svg" xmlns:xlink="http://www.w3.org/1999/xlink">
    <!-- Generator: Sketch 61 (89581) - https://sketch.com -->
    <title>dorpper_normal</title>
    <desc>Created with Sketch.</desc>
    <g id="画板" stroke="none" stroke-width="1" fill="none" fill-rule="evenodd">
        <g id="调色板" transform="translate(-27.000000, -16.000000)">
            <g id="dorpper_normal" transform="translate(27.000000, 16.000000)">
                <g id="Group-3" transform="translate(18.485355, 18.464645) rotate(-45.000000) translate(-18.485355, -18.464645) translate(7.985355, 12.964645)">
                    <path d="M2.97862706,3.29606482 L0.827101413,5.10889293 L2.97554154,6.87939815 L17.9178967,6.87939815 C18.9111513,6.87939815 19.7127315,6.07820991 19.7127315,5.08773149 C19.7127315,4.09289867 18.9126682,3.29606482 17.9178967,3.29606482 L2.97862706,3.29606482 Z" id="Rectangle-4" stroke="#536076"></path>
                    <path d="M13.7960648,0.0460648207 L13.7957315,2.79606482 L17.9125395,2.79606482 C19.1299687,2.79606482 20.1264946,3.73025514 20.2074249,4.92981693 L20.2127315,5.08773149 C20.2127315,6.35338404 19.1930629,7.37939815 17.9125395,7.37939815 L13.7957315,7.37906482 L13.7960648,10.1293982 L11.9627315,10.1293982 L11.9627315,0.0460648207 L13.7960648,0.0460648207 Z" id="Combined-Shape" fill="#536076"></path>
                </g>
                <g id="Line-2-+-Line-3" transform="translate(17.000000, 13.000000)"></g>
            </g>
        </g>
    </g>
</svg>