<?xml version="1.0" encoding="UTF-8"?>
<svg width="24px" height="24px" viewBox="0 0 24 24" version="1.1" xmlns="http://www.w3.org/2000/svg" xmlns:xlink="http://www.w3.org/1999/xlink">
    <title>printer_lrtb_5_24px</title>
    <g id="printer_lrtb_5_24px" stroke="none" stroke-width="1" fill="none" fill-rule="evenodd">
        <path d="M20,9.45968758 C20.5522847,9.45968758 21,9.90740283 21,10.4596876 L21,18.4596876 C21,19.5140494 20.1841222,20.3778527 19.1492623,20.4542018 L19,20.4596876 L8.99937212,20.4596876 L9,22.4193752 C9,22.504527 8.97826479,22.5877772 8.93747561,22.6614824 L8.8904344,22.7317227 C8.73709683,22.9233946 8.47144999,22.9723148 8.26286589,22.859664 L8.18765248,22.8098096 L4.48804301,19.850122 C4.45921065,19.8270561 4.43302201,19.8008675 4.40995612,19.7720351 C4.25661855,19.5803631 4.2672043,19.3104569 4.42289426,19.1316885 L4.48804301,19.0692532 L8.18765248,16.1095656 C8.276309,16.0386404 8.38646425,16 8.5,16 C8.74545989,16 8.94960837,16.1768752 8.99194433,16.4101244 L9,16.5 L8.99937212,18.4596876 L18.9993721,18.4596876 L19,10.4596876 C19,9.90740283 19.4477153,9.45968758 20,9.45968758 Z M13,8.45968758 L13.0685519,8.46200041 L13.1845582,8.47684792 L13.2831831,8.50061963 L13.3925452,8.53989148 L13.4510226,8.56693363 L13.567147,8.63580337 L13.6739336,8.72053219 L13.7536481,8.80212284 L13.8082664,8.87074483 L13.8660254,8.95968758 L13.9011592,9.02609251 L13.9474996,9.13908139 L13.9775613,9.24804873 L13.9981783,9.39615296 L14,9.45968758 L14,15.4596876 C14,16.0119723 13.5522847,16.4596876 13,16.4596876 C12.4477153,16.4596876 12,16.0119723 12,15.4596876 L11.9997822,11.1915959 L11.5223407,11.4165115 C11.0006033,11.6655671 10.4324577,11.5287787 10.1563153,11.0504861 C9.88017292,10.5721934 10.0440481,9.96060303 10.5223407,9.68446066 L12.5,8.59366217 L12.5639551,8.55971442 L12.6589062,8.51938589 L12.740476,8.49369455 L12.8553043,8.46994195 L13,8.45968758 Z M15.5,2 C15.6135357,2 15.723691,2.03864038 15.8123475,2.1095656 L19.511957,5.06925317 C19.727588,5.24175795 19.7625486,5.55640413 19.5900439,5.7720351 C19.566978,5.80086745 19.5407893,5.8270561 19.511957,5.85012198 L15.8123475,8.80980956 C15.5967166,8.98231433 15.2820704,8.94735364 15.1095656,8.73172268 C15.0386404,8.64306615 15,8.5329109 15,8.41937515 L15,6.459 L5,6.459 L5,14.4596876 C5,15.0119723 4.55228475,15.4596876 4,15.4596876 C3.44771525,15.4596876 3,15.0119723 3,14.4596876 L3,6.45968758 C3,5.40532578 3.81587779,4.54152245 4.85073766,4.46517331 L5,4.45968758 L15,4.459 L15,2.5 C15,2.22385763 15.2238576,2 15.5,2 Z" id="形状结合" fill="#536076"></path>
    </g>
</svg>