<?xml version="1.0" encoding="UTF-8"?>
<svg width="12px" height="12px" viewBox="0 0 12 12" version="1.1" xmlns="http://www.w3.org/2000/svg" xmlns:xlink="http://www.w3.org/1999/xlink">
    <title>printer_final_12px</title>
    <g id="printer_final_12px" stroke="none" stroke-width="1" fill="none" fill-rule="evenodd" stroke-linecap="round" stroke-linejoin="round">
        <g id="编组" transform="translate(1.000000, 0.000000)" fill="#536076" fill-rule="nonzero">
            <path d="M0.650949932,0.64199993 C0.826699247,0.470644348 1.09634616,0.454770905 1.28949002,0.592222631 L1.35800007,0.650949932 L6.18400385,5.6006974 C6.34967044,5.77061185 6.37037876,6.02898379 6.24612882,6.22101261 L6.18400385,6.29879754 L1.35800007,11.248545 C1.16522504,11.446263 0.848667911,11.45027 0.650949932,11.257495 C0.475200617,11.0861394 0.45250685,10.8169807 0.585025599,10.6204195 L0.64199993,10.5504449 L5.128,5.949 L0.64199993,1.34905007 C0.470644348,1.17330075 0.454770905,0.903653838 0.592222631,0.710509982 L0.650949932,0.64199993 Z" id="arrow_right"></path>
            <path d="M8.5,0 C8.77614237,0 9,0.223857625 9,0.5 L9,11.5 C9,11.7761424 8.77614237,12 8.5,12 C8.22385763,12 8,11.7761424 8,11.5 L8,0.5 C8,0.223857625 8.22385763,0 8.5,0 Z" id="矩形"></path>
        </g>
    </g>
</svg>