<?xml version="1.0" encoding="UTF-8"?>
<svg width="40px" height="40px" viewBox="0 0 40 40" version="1.1" xmlns="http://www.w3.org/2000/svg" xmlns:xlink="http://www.w3.org/1999/xlink">
    <title>printer_landscape_40px</title>
    <g id="printer_landscape_40px" stroke="none" stroke-width="1" fill="none" fill-rule="evenodd">
        <g id="编组-6备份" transform="translate(2.000000, 6.000000)">
            <path d="M23.3017114,-3.5 L8,-3.5 C7.03350169,-3.5 6.15850169,-3.10824916 5.52512627,-2.47487373 C4.89175084,-1.84149831 4.5,-0.966498312 4.5,-2.01023661e-16 L4.5,28 C4.5,28.9664983 4.89175084,29.8414983 5.52512627,30.4748737 C6.15850169,31.1082492 7.03350169,31.5 8,31.5 L28,31.5 C28.9664983,31.5 29.8414983,31.1082492 30.4748737,30.4748737 C31.1082492,29.8414983 31.5,28.9664983 31.5,28 L31.5,4.21603633 L23.3017114,-3.5 Z" id="矩形" stroke="#E3E3E3" fill="#FFFFFF" transform="translate(18.000000, 14.000000) scale(-1, 1) rotate(-90.000000) translate(-18.000000, -14.000000) "></path>
            <g id="人物" opacity="0.7" transform="translate(12.000000, 5.000000)" fill="#414D68" fill-rule="nonzero">
                <path d="M5.81253436,5.00586492 C6.31253436,5.00586492 9.18553821,5.12210676 10.6230382,9 C12.0605382,12.8778932 11.6378194,12.9941351 11.0324319,13.1578576 C10.4270444,13.32158 9.97907189,12.3539098 9.92663572,12.1442897 C9.87419954,11.9346695 9.20694861,9.51846081 8.31253436,8.63136355 L8.312,18 L6.367,18 L6.36783551,14.0024787 L5.81253436,14.0024787 L5.25706657,14 L5.257,18 L3.312,18 L3.31253436,8.63136355 C2.41784238,9.51885515 1.76611335,11.9345568 1.71367719,12.1442897 C1.66124104,12.3540225 1.17668912,13.3468958 0.591137106,13.1549845 L0.511657062,13.1285746 C-0.0407214446,12.939639 -0.479953853,12.6152268 1.05423663,9 C2.6614838,5.21261956 5.45089866,5.00586492 5.81253436,5.00586492 Z M5.81253436,0 C6.91710386,0 7.81253436,0.8954305 7.81253436,2 C7.81253436,3.1045695 6.91710386,4 5.81253436,4 C4.70796486,4 3.81253436,3.1045695 3.81253436,2 C3.81253436,0.8954305 4.70796486,0 5.81253436,0 Z" id="形状结合"></path>
            </g>
        </g>
    </g>
</svg>