<svg xmlns="http://www.w3.org/2000/svg" width="36" height="36" viewBox="0 0 36 36">
  <path fill="#536076" d="M16.6,10 C20.2450793,10 23.2,12.9549207 23.2,16.6 C23.2,18.2063613 22.6261237,19.6786865 21.6722057,20.8231412 L26.4242641,25.5757359 C26.6585786,25.8100505 26.6585786,26.1899495 26.4242641,26.4242641 C26.1899495,26.6585786 25.8100505,26.6585786 25.5757359,26.4242641 L25.5757359,26.4242641 L20.8231412,21.6722057 C19.6786865,22.6261237 18.2063613,23.2 16.6,23.2 C12.9549207,23.2 10,20.2450793 10,16.6 C10,12.9549207 12.9549207,10 16.6,10 Z M16.6,11.2 C13.6176624,11.2 11.2,13.6176624 11.2,16.6 C11.2,19.5823376 13.6176624,22 16.6,22 C19.5823376,22 22,19.5823376 22,16.6 C22,13.6176624 19.5823376,11.2 16.6,11.2 Z"/>
</svg>
