<?xml version="1.0" encoding="UTF-8"?>
<svg width="20px" height="20px" viewBox="0 0 20 20" version="1.1" xmlns="http://www.w3.org/2000/svg" xmlns:xlink="http://www.w3.org/1999/xlink">
    <title>selection03 </title>
    <defs>
        <path d="M2.00087166,3 C1.4481055,3 1,3.44463086 1,4.00087166 L1,17.9991283 C1,18.5518945 1.44335318,19 2.0093689,19 L3.9906311,19 C4.54809015,19 5,18.544239 5,17.9975267 L5,8.00247329 C5,7.44882258 5.45576096,7 6.00247329,7 L15.9975267,7 C16.5511774,7 17,6.55664682 17,5.9906311 L17,4.0093689 C17,3.45190985 16.5553691,3 15.9991283,3 L2.00087166,3 Z" id="path-1"></path>
        <filter x="-15.6%" y="-15.6%" width="143.7%" height="143.8%" filterUnits="objectBoundingBox" id="filter-2">
            <feOffset dx="1" dy="1" in="SourceAlpha" result="shadowOffsetOuter1"></feOffset>
            <feGaussianBlur stdDeviation="1" in="shadowOffsetOuter1" result="shadowBlurOuter1"></feGaussianBlur>
            <feColorMatrix values="0 0 0 0 0   0 0 0 0 0   0 0 0 0 0  0 0 0 0.5 0" type="matrix" in="shadowBlurOuter1"></feColorMatrix>
        </filter>
    </defs>
    <g id="浅色主题" stroke="none" stroke-width="1" fill="none" fill-rule="evenodd">
        <g id="裁切样式" transform="translate(-207.000000, -749.000000)">
            <g id="选区" transform="translate(207.000000, 140.000000)">
                <g id="selection03-" transform="translate(0.000000, 609.000000)">
                    <g id="selection01" transform="translate(9.000000, 11.000000) scale(1, -1) translate(-9.000000, -11.000000) ">
                        <use fill="black" fill-opacity="1" filter="url(#filter-2)" xlink:href="#path-1"></use>
                        <use fill="#FFFFFF" fill-rule="evenodd" xlink:href="#path-1"></use>
                    </g>
                </g>
            </g>
        </g>
    </g>
</svg>