<?xml version="1.0" encoding="UTF-8"?>
<svg width="36px" height="36px" viewBox="0 0 36 36" version="1.1" xmlns="http://www.w3.org/2000/svg" xmlns:xlink="http://www.w3.org/1999/xlink">
    <title>最大化</title>
    <g id="1050分屏" stroke="none" stroke-width="1" fill="none" fill-rule="evenodd">
        <g id="通过分屏菜单触发分屏" transform="translate(-1543, -264)">
            <g id="编组" transform="translate(1441, 233)">
                <g id="最大化" transform="translate(120, 49) scale(-1, 1) translate(-120, -49)translate(102, 31)">
                    <rect id="矩形备份" fill-opacity="0" fill="#FFFFFF" x="0" y="0" width="36" height="36" rx="8"></rect>
                    <g id="Group" transform="translate(8, 11)" fill="#000000" fill-opacity="0.7" fill-rule="nonzero">
                        <path d="M1,2 L1,13 C1,13.5522847 1.44771525,14 2,14 L18,14 C18.5522847,14 19,13.5522847 19,13 L19,2 C19,1.44771525 18.5522847,1 18,1 L2,1 C1.44771525,1 1,1.44771525 1,2 Z M2,0 L18,0 C19.1045695,-2.02906125e-16 20,0.8954305 20,2 L20,13 C20,14.1045695 19.1045695,15 18,15 L2,15 C0.8954305,15 1.3527075e-16,14.1045695 0,13 L0,2 C-1.3527075e-16,0.8954305 0.8954305,2.02906125e-16 2,0 Z M3,2 C2,2 2,3 2,3 L2,5.5 C2,5.77614237 2.22385763,6 2.5,6 C2.77614237,6 3,5.77614237 3,5.5 L3,4 L3,4 C3,4 3,3.66666667 3,3 L5.5,3 C5.77614237,3 6,2.77614237 6,2.5 C6,2.22385763 5.77614237,2 5.5,2 L3,2 L3,2 Z M17,13 C18,13 18,12 18,12 L18,9.5 C18,9.22385763 17.7761424,9 17.5,9 C17.2238576,9 17,9.22385763 17,9.5 L17,11 L17,11 C17,11 17,11.3333333 17,12 L14.5,12 C14.2238576,12 14,12.2238576 14,12.5 C14,12.7761424 14.2238576,13 14.5,13 L17,13 L17,13 Z" id="Combined-Shape"></path>
                    </g>
                </g>
            </g>
        </g>
    </g>
</svg>