<?xml version="1.0" encoding="UTF-8"?>
<svg width="50px" height="50px" viewBox="0 0 50 50" version="1.1" xmlns="http://www.w3.org/2000/svg" xmlns:xlink="http://www.w3.org/1999/xlink">
    <title>menu_normal</title>
    <g id="页面-1" stroke="none" stroke-width="1" fill="none" fill-rule="evenodd">
        <g id="pad-星形图元" transform="translate(-1870.000000, -40.000000)">
            <g id="编组-22" transform="translate(0.000000, 40.000000)">
                <g id="menu_normal" transform="translate(1870.000000, 0.000000)">
                    <rect id="Rectangle-13" fill-opacity="0.288836051" fill="#000000" opacity="0" x="0" y="0" width="50" height="50"></rect>
                    <g id="编组-28" transform="translate(9.000000, 9.000000)">
                        <rect id="矩形" x="0" y="0" width="32" height="32"></rect>
                        <circle id="椭圆形" stroke="#626E88" stroke-width="1.25" cx="16" cy="16" r="9.375"></circle>
                        <g id="Group" transform="translate(11.000000, 13.000000)" fill="#626E88" stroke="#626E88" stroke-width="0.2">
                            <path d="M1,2 C1.55228475,2 2,2.44771525 2,3 C2,3.55228475 1.55228475,4 1,4 C0.44771525,4 0,3.55228475 0,3 C0,2.44771525 0.44771525,2 1,2 Z M5,2 C5.55228475,2 6,2.44771525 6,3 C6,3.55228475 5.55228475,4 5,4 C4.44771525,4 4,3.55228475 4,3 C4,2.44771525 4.44771525,2 5,2 Z M9,2 C9.55228475,2 10,2.44771525 10,3 C10,3.55228475 9.55228475,4 9,4 C8.44771525,4 8,3.55228475 8,3 C8,2.44771525 8.44771525,2 9,2 Z" id="形状结合"></path>
                        </g>
                    </g>
                </g>
            </g>
        </g>
    </g>
</svg>