<?xml version="1.0" encoding="UTF-8"?>
<svg width="20px" height="20px" viewBox="0 0 20 20" version="1.1" xmlns="http://www.w3.org/2000/svg" xmlns:xlink="http://www.w3.org/1999/xlink">
    <!-- Generator: Sketch 47 (45396) - http://www.bohemiancoding.com/sketch -->
    <title>select-normal</title>
    <desc>Created with Sketch.</desc>
    <defs></defs>
    <g id="Page-1" stroke="none" stroke-width="1" fill="none" fill-rule="evenodd">
        <g id="影院_设置全部" transform="translate(-967.000000, -429.000000)" fill="#303030">
            <g id="Group-8" transform="translate(967.000000, 429.000000)">
                <g id="Group-6">
                    <path d="M6,9 L6,9 C6.55228475,9 7,9.44771525 7,10 L7,10 C7,10.5522847 6.55228475,11 6,11 C5.44771525,11 5,10.5522847 5,10 L5,10 L5,10 C5,9.44771525 5.44771525,9 6,9 L6,9 Z M10,9 C10.5522847,9 11,9.44771525 11,10 L11,10 C11,10.5522847 10.5522847,11 10,11 C9.44771525,11 9,10.5522847 9,10 L9,10 L9,10 C9,9.44771525 9.44771525,9 10,9 Z M14,9 C14.5522847,9 15,9.44771525 15,10 L15,10 C15,10.5522847 14.5522847,11 14,11 C13.4477153,11 13,10.5522847 13,10 L13,10 L13,10 C13,9.44771525 13.4477153,9 14,9 Z" id="Combined-Shape"></path>
                </g>
            </g>
        </g>
    </g>
</svg>