<?xml version="1.0" standalone="no"?><!DOCTYPE svg PUBLIC "-//W3C//DTD SVG 1.1//EN" "http://www.w3.org/Graphics/SVG/1.1/DTD/svg11.dtd"><svg t="1524021940747" class="icon" style="" viewBox="0 0 1024 1024" version="1.1" xmlns="http://www.w3.org/2000/svg" p-id="6370" xmlns:xlink="http://www.w3.org/1999/xlink" width="16" height="16"><defs><style type="text/css"></style></defs><path d="M512 240C178.704 240 12.304 483.872 5.376 494.256c-7.168 10.752-7.168 24.752 0 35.504C12.304 540.128 178.704 784 512 784s499.696-243.872 506.624-254.256c7.168-10.752 7.168-24.752 0-35.504C1011.696 483.872 845.296 240 512 240zM512 720C263.888 720 115.744 565.152 72.192 511.936 115.6 458.608 262.976 304 512 304c248.112 0 396.256 154.848 439.808 208.064C908.4 565.392 761.024 720 512 720zM512 368c-79.408 0-144 64.608-144 144s64.592 144 144 144 144-64.608 144-144S591.408 368 512 368zM512 592c-44.112 0-80-35.888-80-80s35.888-80 80-80 80 35.888 80 80S556.112 592 512 592z" p-id="6371" fill="#1296db"></path></svg>