<svg xmlns="http://www.w3.org/2000/svg" width="383" height="115" viewBox="0 0 383 115">
  <path fill="#0172FF" fill-rule="evenodd" d="M383,115 L383,14.1688789 C380.269872,14.0716143 377.092672,13.5814974 373.063461,12.4722672 C368.696509,11.2699114 362.241136,10.1727531 357.649256,10.1227411 C347.007291,10.0071963 342.744795,10.6014761 332.930121,12.0276784 C326.157898,13.0120512 317.51313,12.4953762 311.375303,10.33762 C305.58601,8.30230681 299.587109,8.09191178 293.164466,8.16675723 C284.09108,8.27264456 276.303198,11.8021073 267.219716,11.3406179 C260.695053,11.0091595 256.565913,8.56512814 248.546835,8.86450991 C241.871757,9.11387975 235.569934,13.1896798 228.881972,13.3297132 C219.538394,13.525622 215.498041,10.7384053 208.282229,8.42337018 C201.688974,6.30769299 190.725982,6.45048568 185.454442,8.65549452 C170.142255,15.0597811 162.05946,9.31703167 150.536236,5.36712375 C147.826999,4.43862637 144.672431,3.20971247 141.663406,2.90998579 C135.153716,2.26155522 129.812539,3.9788615 123.613779,5.46231888 C115.747555,7.3451819 106.643181,6.73503633 99.4869089,3.84572629 C96.4124243,2.60474055 93.6255416,0.951587506 90.1882469,0.261077932 C79.652131,-1.85528907 69.7970674,9.59778831 58.8051757,9.35186757 C49.4744806,9.14319709 42.6942497,2.4740197 33.3934986,1.93078665 C20.5224457,1.17888312 19.3845731,15.343297 0,13.8463882 L0,115 L383,115 Z"/>
</svg>
