<?xml version="1.0" encoding="UTF-8"?>
<svg width="27px" height="23px" viewBox="0 0 27 23" version="1.1" xmlns="http://www.w3.org/2000/svg" xmlns:xlink="http://www.w3.org/1999/xlink">
    <!-- Generator: Sketch 46.2 (44496) - http://www.bohemiancoding.com/sketch -->
    <title>unmaximize-disabled-dark</title>
    <desc>Created with Sketch.</desc>
    <defs></defs>
    <g id="最大化最小化" stroke="none" stroke-width="1" fill="none" fill-rule="evenodd">
        <g id="Artboard-3" transform="translate(-163.000000, -8.000000)">
            <g id="unmaximize_normal-dark" transform="translate(163.000000, 8.000000)">
                <rect id="Rectangle-12" fill-opacity="0.288836051" fill="#000000" opacity="0" x="0" y="0" width="27" height="23"></rect>
                <path d="M17,8 L10,8 L10,7 L18,7 L18,15 L17,15 L17,8 Z M9,14 L9,11 L9,9 L11,9 L14,9 L16,9 L16,11 L16,14 L16,16 L14,16 L11,16 L9,16 L9,14 Z M10,15 L15,15 L15,10 L10,10 L10,15 Z" id="unmaximize_normal" fill="#FFFFFF" opacity="0.300000012"></path>
            </g>
        </g>
    </g>
</svg>