<?xml version="1.0" standalone="no"?><!DOCTYPE svg PUBLIC "-//W3C//DTD SVG 1.1//EN" "http://www.w3.org/Graphics/SVG/1.1/DTD/svg11.dtd"><svg t="1524020868462" class="icon" style="" viewBox="0 0 1024 1024" version="1.1" xmlns="http://www.w3.org/2000/svg" p-id="3181" xmlns:xlink="http://www.w3.org/1999/xlink" width="16" height="16"><defs><style type="text/css"></style></defs><path d="M511.238149 536.597211M511.238149 536.597211M105.142154 907.508869M105.142154 265.895883M894.192074 633.006981c-7.892761 0-15.782451-3.024893-21.784142-9.067516l-360.869954-363.408777-361.487008 363.426173c-11.95631 12.020778-31.394011 12.07399-43.414789 0.115634-12.020778-11.95631-12.072967-31.394011-0.116657-43.414789l383.27115-385.326972c5.762237-5.792936 13.595646-9.05012 21.765723-9.05012 0.004093 0 0.008186 0 0.01228 0 8.175193 0.00307 16.010649 3.267417 21.770839 9.067516l382.635677 385.326972c11.946077 12.031011 11.878538 31.468712-0.152473 43.414789C909.835356 630.036323 902.01218 633.006981 894.192074 633.006981zM511.238149 602.307795m-45.025473 0a44 44 0 1 0 90.050945 0 44 44 0 1 0-90.050945 0ZM511.238149 792.514835m-45.025473 0a44 44 0 1 0 90.050945 0 44 44 0 1 0-90.050945 0Z" p-id="3182" fill="#1296db"></path></svg>