<svg height="26" viewBox="0 0 24 26" width="24" xmlns="http://www.w3.org/2000/svg">
  <path d="m1.76689 3.83867c.02923-.00532.05934-.0081.09011-.0081.27614 0 .5.22386.5.5 0 1.24396 1.40857 2.31487 3.20242 2.31487 1.79393 0 3.20251-1.07091 3.20251-2.31487 0-.27614.22386-.5.5-.5s.5.22386.5.5c0 1.86524-1.90674 3.31487-4.20251 3.31487-2.27303 0-4.16474-1.42117-4.20186-3.25976-.13676.18858-.34024.46861-.4038.55023-.16967.21787-.48383.25695-.7017.08728s-.25695-.48383-.08728-.7017c.08056-.10345.46737-.63978.51568-.7053.2714-.3681.51833-.67784.78846-.97801 1.1868-1.31874 2.51585-2.08921 4.12131-2.08921 2.5817 0 4.0098 1.21988 5.46782 3.83633.13442.24122.04784.54573-.19338.68015s-.54573.04784-.68015-.19338c-1.30015-2.33314-2.45909-3.32311-4.59429-3.32311-1.27563 0-2.36308.63041-3.378 1.75816-.15179.16866-.29679.34226-.44534.53153z" fill="#ddd" transform="translate(7 9)"/>
</svg>
