<?xml version="1.0" encoding="UTF-8"?>
<svg width="24px" height="26px" viewBox="0 0 24 26" version="1.1" xmlns="http://www.w3.org/2000/svg" xmlns:xlink="http://www.w3.org/1999/xlink">
    <!-- Generator: Sketch 48.2 (47327) - http://www.bohemiancoding.com/sketch -->
    <title>hide_password_normal</title>
    <desc>Created with Sketch.</desc>
    <defs></defs>
    <g id="不透明控件库" stroke="none" stroke-width="1" fill="none" fill-rule="evenodd" transform="translate(-1789.000000, -1598.000000)">
        <g id="show_password_normal" transform="translate(1789.000000, 1598.000000)" fill="#DDDDDD" fill-rule="nonzero">
            <g id="eye" transform="translate(7.000000, 9.000000)">
                <path d="M1.76689308,3.83867328 C1.79612248,3.83335357 1.82623807,3.8305751 1.85700261,3.8305751 C2.13314499,3.8305751 2.35700261,4.05443272 2.35700261,4.3305751 C2.35700261,5.57453324 3.76557654,6.64545003 5.5594192,6.64545003 C7.3533453,6.64545003 8.761933,5.57454219 8.761933,4.3305751 C8.761933,4.05443272 8.98579063,3.8305751 9.261933,3.8305751 C9.53807537,3.8305751 9.761933,4.05443272 9.761933,4.3305751 C9.761933,6.19581212 7.85519365,7.64545003 5.5594192,7.64545003 C3.28638599,7.64545003 1.39468224,6.22427539 1.35755848,4.38568631 C1.22079921,4.57427023 1.01732289,4.85429518 0.953762249,4.93591467 C0.784096188,5.15378629 0.469934832,5.19286461 0.252063221,5.02319854 C0.0341916097,4.85353248 -0.00488671,4.53937113 0.164779351,4.32149952 C0.245342309,4.218047 0.632149981,3.68172073 0.680457004,3.61620162 C0.951854903,3.24810294 1.19878313,2.9383624 1.46891901,2.63819536 C2.65572205,1.31945473 3.98477078,0.548984955 5.59022902,0.548984955 C8.17192531,0.548984955 9.60002751,1.76886965 11.0580483,4.38531981 C11.1924674,4.6265378 11.1058897,4.93105182 10.8646717,5.06547091 C10.6234538,5.19989 10.3189397,5.11331238 10.1845206,4.87209438 C8.8843754,2.53895529 7.72543077,1.54898495 5.59022902,1.54898495 C4.31459492,1.54898495 3.22714775,2.17939463 2.21223096,3.30714031 C2.06044327,3.47580233 1.91543662,3.6493985 1.76689308,3.83867328 Z" id="Combined-Shape"></path>
            </g>
        </g>
    </g>
</svg>