<?xml version="1.0" standalone="no"?><!DOCTYPE svg PUBLIC "-//W3C//DTD SVG 1.1//EN" "http://www.w3.org/Graphics/SVG/1.1/DTD/svg11.dtd"><svg t="1524021535602" class="icon" style="" viewBox="0 0 1024 1024" version="1.1" xmlns="http://www.w3.org/2000/svg" p-id="5467" xmlns:xlink="http://www.w3.org/1999/xlink" width="16" height="16"><defs><style type="text/css"></style></defs><path d="M928.67 206.44H95.33A83.42 83.42 0 0 0 12 289.78v444.44a83.42 83.42 0 0 0 83.33 83.33h833.34a83.42 83.42 0 0 0 83.33-83.33V289.78a83.42 83.42 0 0 0-83.33-83.34z m27.78 527.78A27.8 27.8 0 0 1 928.67 762H95.33a27.8 27.8 0 0 1-27.78-27.78V289.78A27.8 27.8 0 0 1 95.33 262h833.34a27.8 27.8 0 0 1 27.78 27.78z" p-id="5468" fill="#1296db"></path><path d="M845.33 623.11H178.67a27.78 27.78 0 0 0 0 55.56h666.66a27.78 27.78 0 0 0 0-55.56zM178.67 539.78H262a27.78 27.78 0 1 0 0-55.56h-83.33a27.78 27.78 0 0 0 0 55.56zM373.11 539.78h83.33a27.78 27.78 0 0 0 0-55.56h-83.33a27.78 27.78 0 0 0 0 55.56zM567.56 539.78h83.33a27.78 27.78 0 0 0 0-55.56h-83.33a27.78 27.78 0 0 0 0 55.56zM845.33 484.22H762a27.78 27.78 0 1 0 0 55.56h83.33a27.78 27.78 0 0 0 0-55.56zM178.67 400.89H262a27.78 27.78 0 1 0 0-55.56h-83.33a27.78 27.78 0 0 0 0 55.56zM373.11 400.89h83.33a27.78 27.78 0 0 0 0-55.56h-83.33a27.78 27.78 0 0 0 0 55.56zM567.56 400.89h83.33a27.78 27.78 0 0 0 0-55.56h-83.33a27.78 27.78 0 0 0 0 55.56zM845.33 345.33H762a27.78 27.78 0 1 0 0 55.56h83.33a27.78 27.78 0 0 0 0-55.56z" p-id="5469" fill="#1296db"></path></svg>