<?xml version="1.0" standalone="no"?><!DOCTYPE svg PUBLIC "-//W3C//DTD SVG 1.1//EN" "http://www.w3.org/Graphics/SVG/1.1/DTD/svg11.dtd"><svg t="1524021439864" class="icon" style="" viewBox="0 0 1024 1024" version="1.1" xmlns="http://www.w3.org/2000/svg" p-id="4258" xmlns:xlink="http://www.w3.org/1999/xlink" width="16" height="16"><defs><style type="text/css"></style></defs><path d="M884.48 989.687l-744.96 0 0-517.047 122.727 0 0-188.574c0-137.716 112.036-249.753 249.774-249.753 137.716 0 249.731 112.036 249.731 249.753l0 188.574 122.727 0 0 517.047zM183.156 946.051l657.709 0 0-429.774-657.709 0 0 429.774zM305.884 472.64l412.233 0 0-188.574c0-113.651-92.444-206.116-206.094-206.116-113.651 0-206.138 92.466-206.138 206.116l0 188.574z" p-id="4259" fill="#1296db"></path></svg>