<svg xmlns="http://www.w3.org/2000/svg" width="48" height="48" viewBox="0 0 48 48">
  <path fill="#FFF" fill-rule="evenodd" d="M13,1.21455591 C13,0.112089413 13.7703795,-0.318305698 14.7206907,0.25188105 L14.7206907,0.25188105 L26.2793093,7.18705218 C27.2355257,7.76078205 27.2296205,8.6816943 26.2793093,9.25188105 L26.2793093,9.25188105 L14.7206907,16.1870522 C13.7644743,16.7607821 13,16.3262347 13,15.2243773 L13,15.2243773 L13,9.418 L1.72069073,16.1870522 C0.804316625,16.7368766 0.0640390751,16.3606965 0.00394020656,15.3586093 L8.1428837e-15,15.2243773 L1.01504972e-15,1.21455591 C4.54143342e-16,0.112089413 0.770379479,-0.318305698 1.72069073,0.25188105 L1.72069073,0.25188105 L13,7.02 Z" transform="translate(11 16)"/>
</svg>
