<svg xmlns="http://www.w3.org/2000/svg" width="78" height="23" viewBox="0 0 78 23">
  <defs>
    <linearGradient id="关于-a" x1="0%" x2="100%" y1="45.653%" y2="54.347%">
      <stop offset="0%" stop-color="#0071FF"/>
      <stop offset="21.078%" stop-color="#00FBFF" stop-opacity=".755"/>
      <stop offset="45.882%" stop-color="#006CFF" stop-opacity=".918"/>
      <stop offset="71.851%" stop-color="#00FCA7"/>
      <stop offset="100%" stop-color="#00A2FF"/>
    </linearGradient>
  </defs>
  <path fill="url(#关于-a)" d="M21.5,0 C22.3284271,0 23,0.671572875 23,1.5 L23,1.5 L23,11.5 C23,17.8512746 17.8512746,23 11.5,23 C5.14872538,23 0,17.8512746 0,11.5 L0,11.5 L0,1.5 C0,0.671572875 0.671572875,0 1.5,0 C2.32842712,0 3,0.671572875 3,1.5 L3,1.5 L3,11.5 C3,16.1944204 6.80557963,20 11.5,20 C16.1944204,20 20,16.1944204 20,11.5 L20,11.5 L20,1.5 C20,0.671572875 20.6715729,0 21.5,0 Z M42,0 C47.2467051,0 51.5,4.25329488 51.5,9.5 L51.5,13.5 C51.5,18.7467051 47.2467051,23 42,23 L38,23 C32.7532949,23 28.5,18.7467051 28.5,13.5 L28.5,9.5 C28.5,4.25329488 32.7532949,0 38,0 L42,0 Z M75.5,0 C76.3284271,0 77,0.671572875 77,1.5 C77,2.32842712 76.3284271,3 75.5,3 L75.5,3 L62.5,3 C60.5670034,3 59,4.56700338 59,6.5 C59,8.43299662 60.5670034,10 62.5,10 L62.5,10 L71.5,10 C75.0898509,10 78,12.9101491 78,16.5 C78,20.0898509 75.0898509,23 71.5,23 L71.5,23 L58.5,23 C57.6715729,23 57,22.3284271 57,21.5 C57,20.6715729 57.6715729,20 58.5,20 L58.5,20 L71.5,20 C73.4329966,20 75,18.4329966 75,16.5 C75,14.5670034 73.4329966,13 71.5,13 L71.5,13 L62.5,13 C58.9101491,13 56,10.0898509 56,6.5 C56,2.91014913 58.9101491,0 62.5,0 L62.5,0 Z M42,3 L38,3 C34.4101491,3 31.5,5.91014913 31.5,9.5 L31.5,13.5 C31.5,17.0898509 34.4101491,20 38,20 L42,20 C45.5898509,20 48.5,17.0898509 48.5,13.5 L48.5,9.5 C48.5,5.91014913 45.5898509,3 42,3 Z"/>
</svg>
