<svg xmlns="http://www.w3.org/2000/svg" xmlns:xlink="http://www.w3.org/1999/xlink" width="32" height="32" viewBox="0 0 32 32">
  <defs>
    <circle id="voice_activate-b" cx="11" cy="11" r="11"/>
    <filter id="voice_activate-a" width="168.2%" height="168.2%" x="-34.1%" y="-20.5%" filterUnits="objectBoundingBox">
      <feOffset dy="3" in="SourceAlpha" result="shadowOffsetOuter1"/>
      <feGaussianBlur in="shadowOffsetOuter1" result="shadowBlurOuter1" stdDeviation="2"/>
      <feColorMatrix in="shadowBlurOuter1" values="0 0 0 0 0.854901961   0 0 0 0 0.00784313725   0 0 0 0 0.00784313725  0 0 0 0.2 0"/>
    </filter>
  </defs>
  <g fill="none" fill-rule="evenodd" transform="translate(5 5)">
    <use fill="#000" filter="url(#voice_activate-a)" xlink:href="#voice_activate-b"/>
    <use fill="#F74444" xlink:href="#voice_activate-b"/>
    <path fill="#FFF" d="M11.5,6 C11.7761424,6 12,6.22385763 12,6.5 L12,15.5 C12,15.7761424 11.7761424,16 11.5,16 C11.2238576,16 11,15.7761424 11,15.5 L11,6.5 C11,6.22385763 11.2238576,6 11.5,6 Z M7.5,8 C7.77614237,8 8,8.22385763 8,8.5 L8,14.5 C8,14.7761424 7.77614237,15 7.5,15 C7.22385763,15 7,14.7761424 7,14.5 L7,8.5 C7,8.22385763 7.22385763,8 7.5,8 Z M9.5,9 C9.77614237,9 10,9.22385763 10,9.5 L10,13.5 C10,13.7761424 9.77614237,14 9.5,14 C9.22385763,14 9,13.7761424 9,13.5 L9,9.5 C9,9.22385763 9.22385763,9 9.5,9 Z M13.5,8 C13.7761424,8 14,8.22385763 14,8.5 L14,13.5 C14,13.7761424 13.7761424,14 13.5,14 C13.2238576,14 13,13.7761424 13,13.5 L13,8.5 C13,8.22385763 13.2238576,8 13.5,8 Z M15.5,9 C15.7761424,9 16,9.22385763 16,9.5 L16,12.5 C16,12.7761424 15.7761424,13 15.5,13 C15.2238576,13 15,12.7761424 15,12.5 L15,9.5 C15,9.22385763 15.2238576,9 15.5,9 Z"/>
  </g>
</svg>
