<?xml version="1.0" encoding="UTF-8" standalone="no"?>
<svg
   xmlns:dc="http://purl.org/dc/elements/1.1/"
   xmlns:cc="http://creativecommons.org/ns#"
   xmlns:rdf="http://www.w3.org/1999/02/22-rdf-syntax-ns#"
   xmlns:svg="http://www.w3.org/2000/svg"
   xmlns="http://www.w3.org/2000/svg"
   xmlns:sodipodi="http://sodipodi.sourceforge.net/DTD/sodipodi-0.dtd"
   xmlns:inkscape="http://www.inkscape.org/namespaces/inkscape"
   width="500"
   height="110"
   viewBox="0 0 500 110"
   version="1.1"
   id="svg10"
   sodipodi:docname="water_back.svg"
   inkscape:version="0.92.1 r15371">
  <metadata
     id="metadata14">
    <rdf:RDF>
      <cc:Work
         rdf:about="">
        <dc:format>image/svg+xml</dc:format>
        <dc:type
           rdf:resource="http://purl.org/dc/dcmitype/StillImage" />
      </cc:Work>
    </rdf:RDF>
  </metadata>
  <sodipodi:namedview
     pagecolor="#ffffff"
     bordercolor="#666666"
     borderopacity="1"
     objecttolerance="10"
     gridtolerance="10"
     guidetolerance="10"
     inkscape:pageopacity="0"
     inkscape:pageshadow="2"
     inkscape:window-width="1860"
     inkscape:window-height="1052"
     id="namedview12"
     showgrid="false"
     inkscape:zoom="1.3174516"
     inkscape:cx="109.40083"
     inkscape:cy="-30.881016"
     inkscape:window-x="1920"
     inkscape:window-y="0"
     inkscape:window-maximized="1"
     inkscape:current-layer="svg10" />
  <!-- Generator: Sketch 46.2 (44496) - http://www.bohemiancoding.com/sketch -->
  <title
     id="title2">water_back</title>
  <desc
     id="desc4">Created with Sketch.</desc>
  <defs
     id="defs6" />
  <g
     id="对话框"
     transform="scale(1.3157895,0.99099099)"
     style="fill:none;fill-rule:evenodd;stroke:none;stroke-width:1">
    <path
       d="M 380,111 V 5.9627078 c -2.70874,-0.096499 -7.48881,-2.2162231 -13.50709,-1.0934831 -6.01828,1.12274 -8.0705,8.5760363 -12.62641,8.5264183 C 343.30789,13.281008 341.54976,4.5477337 331.81196,5.9627078 322.07416,7.3776819 305.3529,11.812819 298.61807,8.8419929 291.88324,5.8711665 284.15247,2.0873556 277.78014,2.1616118 268.77782,2.2666655 260.73265,19.521529 245.89558,18.045921 231.05852,16.570312 239.1012,15.077864 224.99667,11.812819 210.89214,8.5477749 210.87198,14.894414 199.63075,10.412758 188.38951,5.9311013 184.60501,-3.1405281 167.64172,3.1567133 150.67844,9.4539547 152.00683,13.395643 138.34354,13.395643 c -13.6633,0 -11.05715,-13.7707138 -31.18949,-13.38780304 C 93.768297,0.26243263 91.11274,7.6192711 78.398463,5.9627078 65.684186,4.3061445 52.883252,0.80138889 43.655352,0.26243263 30.885117,-0.48355127 19.232736,7.4478317 0,5.9627078 V 111 Z"
       id="water_back"
       inkscape:connector-curvature="0"
       style="fill:#009dff" />
  </g>
</svg>
