<?xml version="1.0" encoding="UTF-8" standalone="no"?>
<svg
   xmlns:dc="http://purl.org/dc/elements/1.1/"
   xmlns:cc="http://creativecommons.org/ns#"
   xmlns:rdf="http://www.w3.org/1999/02/22-rdf-syntax-ns#"
   xmlns:svg="http://www.w3.org/2000/svg"
   xmlns="http://www.w3.org/2000/svg"
   xmlns:sodipodi="http://sodipodi.sourceforge.net/DTD/sodipodi-0.dtd"
   xmlns:inkscape="http://www.inkscape.org/namespaces/inkscape"
   width="500"
   height="109.99999"
   viewBox="0 0 500 109.99999"
   version="1.1"
   id="svg10"
   sodipodi:docname="water_front.svg"
   inkscape:version="0.92.1 r15371">
  <metadata
     id="metadata14">
    <rdf:RDF>
      <cc:Work
         rdf:about="">
        <dc:format>image/svg+xml</dc:format>
        <dc:type
           rdf:resource="http://purl.org/dc/dcmitype/StillImage" />
      </cc:Work>
    </rdf:RDF>
  </metadata>
  <sodipodi:namedview
     pagecolor="#ffffff"
     bordercolor="#666666"
     borderopacity="1"
     objecttolerance="10"
     gridtolerance="10"
     guidetolerance="10"
     inkscape:pageopacity="0"
     inkscape:pageshadow="2"
     inkscape:window-width="1920"
     inkscape:window-height="1052"
     id="namedview12"
     showgrid="false"
     inkscape:zoom="1.0973684"
     inkscape:cx="191.82254"
     inkscape:cy="49.999995"
     inkscape:window-x="0"
     inkscape:window-y="0"
     inkscape:window-maximized="1"
     inkscape:current-layer="svg10" />
  <!-- Generator: Sketch 46.2 (44496) - http://www.bohemiancoding.com/sketch -->
  <title
     id="title2">water_front</title>
  <desc
     id="desc4">Created with Sketch.</desc>
  <defs
     id="defs6" />
  <g
     id="对话框"
     transform="matrix(1.3157895,0,0,1.0997447,0,0.02552545)"
     style="fill:none;fill-rule:evenodd;stroke:none;stroke-width:1">
    <path
       d="M 380,100 V 11 C 377.29126,10.759864 374.13894,10.326506 370,9 365.80855,8.2826191 359.15506,1.7624294 355,2 344.04054,1.6160454 344.00285,5.3256612 334,7 327.54588,7.457074 325.45208,4.8877289 309,2 293.50039,-1.4513104 281.01233,11.25391 272,11 265.52645,10.552792 254.55626,5.8910696 247,6 239.9772,6.3762718 233.12477,13.647955 226,14 217.2188,13.944993 213.81007,7.8126653 207,6 200.10916,3.8950621 189.23204,4.0213183 184,6 168.80955,11.633594 164.64559,6.5558972 153,3 150.52461,2.2424471 146.02223,1.9832254 143,2 136.57807,1.1448717 127.08966,12.460109 121,14 113.13485,15.436585 113.39058,10.24849 97,3 81.479518,-4.121655 69.250354,6.8041402 58,7 49.086952,6.4021939 42.35983,0.50535639 33,0 20.361695,-0.63979385 19.232736,12.169421 0,11 v 89 z"
       id="water_front"
       inkscape:connector-curvature="0"
       style="fill:#01c4ff" />
  </g>
</svg>
