<?xml version="1.0" encoding="UTF-8"?>
<svg width="24px" height="24px" viewBox="0 0 24 24" version="1.1" xmlns="http://www.w3.org/2000/svg" xmlns:xlink="http://www.w3.org/1999/xlink">
    <title>printer_lrtb_4_24px</title>
    <g id="printer_lrtb_4_24px" stroke="none" stroke-width="1" fill="none" fill-rule="evenodd">
        <path d="M5.46567085,4.88837381 L5.45968758,5.00200475 L5.45968758,16.002 L3.5,16.0020048 C3.22385763,16.0020048 3,16.2258624 3,16.5020048 C3,16.6155405 3.03864038,16.7256958 3.1095656,16.8143523 L6.06925317,20.5139617 C6.24175795,20.7295927 6.55640413,20.7645534 6.7720351,20.5920486 C6.80086745,20.5689827 6.8270561,20.5427941 6.85012198,20.5139617 L9.80980956,16.8143523 C9.98231433,16.5987213 9.94735364,16.2840751 9.73172268,16.1115703 C9.64306615,16.0406451 9.5329109,16.0020048 9.41937515,16.0020048 L7.45968758,16.002 L7.45968758,7.41600475 L19.7525808,19.7091115 C20.3551559,20.3116866 21.3668684,19.9296724 21.4537043,19.1156357 L21.4596876,19.0020048 L21.4596876,5.00200475 C21.4596876,4.44972 21.0119723,4.00200475 20.4596876,4.00200475 C19.9468517,4.00200475 19.5241804,4.38804494 19.4664153,4.88538363 L19.4596876,5.00200475 L19.4596876,16.5870048 L7.16679436,4.29489797 C6.56421927,3.69232289 5.55250677,4.07433707 5.46567085,4.88837381 Z" id="路径" fill="#536076"></path>
    </g>
</svg>