<?xml version="1.0" encoding="UTF-8"?>
<svg width="40px" height="40px" viewBox="0 0 40 40" version="1.1" xmlns="http://www.w3.org/2000/svg" xmlns:xlink="http://www.w3.org/1999/xlink">
    <title>printer_portrait_40px_dark</title>
    <g id="printer_portrait_40px_dark" stroke="none" stroke-width="1" fill="none" fill-rule="evenodd">
        <g id="编组-6" transform="translate(6.000000, 2.000000)">
            <path d="M19.3017114,0.5 L4,0.5 C3.03350169,0.5 2.15850169,0.891750844 1.52512627,1.52512627 C0.891750844,2.15850169 0.5,3.03350169 0.5,4 L0.5,32 C0.5,32.9664983 0.891750844,33.8414983 1.52512627,34.4748737 C2.15850169,35.1082492 3.03350169,35.5 4,35.5 L24,35.5 C24.9664983,35.5 25.8414983,35.1082492 26.4748737,34.4748737 C27.1082492,33.8414983 27.5,32.9664983 27.5,32 L27.5,8.21603633 L19.3017114,0.5 Z" id="矩形" stroke-opacity="0.1" stroke="#FFFFFF" fill="#232323"></path>
            <g id="人物" opacity="0.7" transform="translate(8.000000, 6.000000)" fill="#536076">
                <path d="M5.81253436,0 C6.91710386,0 7.81253436,0.8954305 7.81253436,2 C7.81253436,3.1045695 6.91710386,4 5.81253436,4 C4.70796486,4 3.81253436,3.1045695 3.81253436,2 C3.81253436,0.8954305 4.70796486,0 5.81253436,0 Z M9.92663572,12.1442897 C9.87419954,11.9346695 9.20694861,9.51846081 8.31253436,8.63136355 L8.31253436,22.5614717 C8.31253436,22.5614717 8.23951217,23.4064871 7.30271575,23.4078392 C7.30271575,23.4078392 6.72738983,23.4827076 6.36783551,22.5614717 L6.36783551,14.0024787 L5.81253436,14.0024787 L5.25706657,14 L5.25706657,22.5628237 C4.89740119,23.4845103 4.30396975,23.4078392 4.30396973,23.4078392 C3.58675805,23.4078392 3.31253436,22.5614717 3.31253436,22.5614717 L3.31253436,8.63136355 C2.41784238,9.51885515 1.76611335,11.9345568 1.71367719,12.1442897 C1.66124104,12.3540225 1.17668912,13.3468958 0.591137106,13.1549845 C0.00558509517,12.9630733 -0.553010543,12.7873804 1.05423663,9 C2.6614838,5.21261956 5.45089866,5.00586492 5.81253436,5.00586492 C6.31253436,5.00586492 9.18553821,5.12210676 10.6230382,9 C12.0605382,12.8778932 11.6378194,12.9941351 11.0324319,13.1578576 C10.4270444,13.32158 9.97907189,12.3539098 9.92663572,12.1442897 Z" id="形状"></path>
            </g>
        </g>
    </g>
</svg>