<?xml version="1.0" encoding="UTF-8"?>
<svg width="12px" height="12px" viewBox="0 0 12 12" version="1.1" xmlns="http://www.w3.org/2000/svg" xmlns:xlink="http://www.w3.org/1999/xlink">
    <title>printer_final_12px_dark</title>
    <g id="printer_final_12px_dark" stroke="none" stroke-width="1" fill="none" fill-rule="evenodd" stroke-linecap="round" stroke-linejoin="round">
        <g id="编组" transform="translate(2.000000, 0.000000)" fill="#C0C6D4" fill-rule="nonzero">
            <path d="M-0.349050068,0.64199993 C-0.173300753,0.470644348 0.0963461615,0.454770905 0.289490018,0.592222631 L0.35800007,0.650949932 L5.18400385,5.6006974 C5.34967044,5.77061185 5.37037876,6.02898379 5.24612882,6.22101261 L5.18400385,6.29879754 L0.35800007,11.248545 C0.16522504,11.446263 -0.151332089,11.45027 -0.349050068,11.257495 C-0.524799383,11.0861394 -0.54749315,10.8169807 -0.414974401,10.6204195 L-0.35800007,10.5504449 L4.128,5.949 L-0.35800007,1.34905007 C-0.529355652,1.17330075 -0.545229095,0.903653838 -0.407777369,0.710509982 L-0.349050068,0.64199993 Z" id="arrow_right"></path>
            <path d="M7.5,0 C7.77614237,0 8,0.223857625 8,0.5 L8,11.5 C8,11.7761424 7.77614237,12 7.5,12 C7.22385763,12 7,11.7761424 7,11.5 L7,0.5 C7,0.223857625 7.22385763,0 7.5,0 Z" id="矩形"></path>
        </g>
    </g>
</svg>