<?xml version="1.0" encoding="UTF-8"?>
<svg width="24px" height="24px" viewBox="0 0 24 24" version="1.1" xmlns="http://www.w3.org/2000/svg" xmlns:xlink="http://www.w3.org/1999/xlink">
    <title>printer_lrtb_3_24px_dark</title>
    <g id="printer_lrtb_3_24px_dark" stroke="none" stroke-width="1" fill="none" fill-rule="evenodd">
        <path d="M18.9940167,4.88837381 L19,5.00200475 L19,16.002 L20.9596876,16.0020048 C21.23583,16.0020048 21.4596876,16.2258624 21.4596876,16.5020048 C21.4596876,16.6155405 21.4210472,16.7256958 21.350122,16.8143523 L18.3904344,20.5139617 C18.2179296,20.7295927 17.9032834,20.7645534 17.6876525,20.5920486 C17.6588201,20.5689827 17.6326315,20.5427941 17.6095656,20.5139617 L14.649878,16.8143523 C14.4773732,16.5987213 14.5123339,16.2840751 14.7279649,16.1115703 C14.8166214,16.0406451 14.9267767,16.0020048 15.0403124,16.0020048 L17,16.002 L17,7.41600475 L4.70710678,19.7091115 C4.1045317,20.3116866 3.09281919,19.9296724 3.00598327,19.1156357 L3,19.0020048 L3,5.00200475 C3,4.44972 3.44771525,4.00200475 4,4.00200475 C4.51283584,4.00200475 4.93550716,4.38804494 4.99327227,4.88538363 L5,5.00200475 L5,16.5870048 L17.2928932,4.29489797 C17.8954683,3.69232289 18.9071808,4.07433707 18.9940167,4.88837381 Z" id="形状结合" fill="#C5CFE0" transform="translate(12.229844, 12.350816) rotate(-360.000000) translate(-12.229844, -12.350816) "></path>
    </g>
</svg>