<?xml version="1.0" encoding="UTF-8"?>
<svg width="36px" height="36px" viewBox="0 0 36 36" version="1.1" xmlns="http://www.w3.org/2000/svg" xmlns:xlink="http://www.w3.org/1999/xlink">
    <title>search_indicator_dark_36px</title>
    <g id="search_indicator_dark_36px" stroke="none" stroke-width="1" fill="none" fill-rule="evenodd">
        <g id="search_indicator_36px" transform="translate(10.000000, 10.000000)" fill="#C5CFE0">
            <path d="M6.6,0 C10.2450793,0 13.2,2.9549207 13.2,6.6 C13.2,8.2063613 12.6261237,9.6786865 11.6722057,10.8231412 L16.4242641,15.5757359 C16.6585786,15.8100505 16.6585786,16.1899495 16.4242641,16.4242641 C16.1899495,16.6585786 15.8100505,16.6585786 15.5757359,16.4242641 L15.5757359,16.4242641 L10.8231412,11.6722057 C9.6786865,12.6261237 8.2063613,13.2 6.6,13.2 C2.9549207,13.2 0,10.2450793 0,6.6 C0,2.9549207 2.9549207,0 6.6,0 Z M6.6,1.2 C3.6176624,1.2 1.2,3.6176624 1.2,6.6 C1.2,9.5823376 3.6176624,12 6.6,12 C9.5823376,12 12,9.5823376 12,6.6 C12,3.6176624 9.5823376,1.2 6.6,1.2 Z" id="形状"></path>
        </g>
    </g>
</svg>