<?xml version="1.0" encoding="UTF-8"?>
<svg width="36px" height="36px" viewBox="0 0 36 36" version="1.1" xmlns="http://www.w3.org/2000/svg" xmlns:xlink="http://www.w3.org/1999/xlink">
    <title>最大化_normal_dark</title>
    <defs>
        <filter color-interpolation-filters="auto" id="filter-1">
            <feColorMatrix in="SourceGraphic" type="matrix" values="0 0 0 0 0.774103 0 0 0 0 0.813135 0 0 0 0 0.879671 0 0 0 1.000000 0"></feColorMatrix>
        </filter>
    </defs>
    <g id="1050分屏" stroke="none" stroke-width="1" fill="none" fill-rule="evenodd">
        <g id="编组-3备份-2" transform="translate(18.000000, 18.000000) scale(-1, 1) translate(-18.000000, -18.000000) translate(0.000000, -0.000000)">
            <rect id="矩形备份" fill-opacity="0" fill="#FFFFFF" x="0" y="0" width="36" height="36" rx="8"></rect>
            <g filter="url(#filter-1)" id="Group">
                <g transform="translate(8.000000, 11.000000)">
                    <path d="M1,2 L1,13 C1,13.5522847 1.44771525,14 2,14 L18,14 C18.5522847,14 19,13.5522847 19,13 L19,2 C19,1.44771525 18.5522847,1 18,1 L2,1 C1.44771525,1 1,1.44771525 1,2 Z M2,0 L18,0 C19.1045695,-2.02906125e-16 20,0.8954305 20,2 L20,13 C20,14.1045695 19.1045695,15 18,15 L2,15 C0.8954305,15 1.3527075e-16,14.1045695 0,13 L0,2 C-1.3527075e-16,0.8954305 0.8954305,2.02906125e-16 2,0 Z M17.5,9 C17.7761424,9 18,9.22385763 18,9.5 L18,9.5 L18,12 C18,12 18,13 17,13 L17,13 L14.5,13 C14.2238576,13 14,12.7761424 14,12.5 C14,12.2238576 14.2238576,12 14.5,12 L14.5,12 L17,12 L17,12 L17,9.5 C17,9.22385763 17.2238576,9 17.5,9 Z M5.5,2 C5.77614237,2 6,2.22385763 6,2.5 C6,2.77614237 5.77614237,3 5.5,3 L5.5,3 L3,3 L3,3 L3,5.5 C3,5.77614237 2.77614237,6 2.5,6 C2.22385763,6 2,5.77614237 2,5.5 L2,5.5 L2.00017147,2.99108368 C2.00308642,2.89197531 2.05555556,2 3,2 L3,2 Z" id="Combined-Shape" fill="#000000" fill-rule="nonzero"></path>
                </g>
            </g>
        </g>
    </g>
</svg>