<?xml version="1.0" encoding="UTF-8"?>
<svg width="16px" height="16px" viewBox="0 0 16 16" version="1.1" xmlns="http://www.w3.org/2000/svg" xmlns:xlink="http://www.w3.org/1999/xlink">
    <title>icon_ProgressBar/normal</title>
    <g id="icon_ProgressBar/normal" stroke="none" stroke-width="1" fill="none" fill-rule="evenodd">
        <path d="M15,6 C15.5522847,6 16,6.44771525 16,7 L16,8 C16,8.55228475 15.5522847,9 15,9 L1,9 C0.44771525,9 6.76353751e-17,8.55228475 0,8 L0,7 C-6.76353751e-17,6.44771525 0.44771525,6 1,6 L15,6 Z M12.5,7 L1.5,7 C1.22385763,7 1,7.22385763 1,7.5 C1,7.77614237 1.22385763,8 1.5,8 L1.5,8 L12.5,8 C12.7761424,8 13,7.77614237 13,7.5 C13,7.22385763 12.7761424,7 12.5,7 L12.5,7 Z" id="形状结合" fill="#626E88"></path>
    </g>
</svg>