<?xml version="1.0" encoding="UTF-8"?>
<svg width="16px" height="16px" viewBox="0 0 16 16" version="1.1" xmlns="http://www.w3.org/2000/svg" xmlns:xlink="http://www.w3.org/1999/xlink">
    <title>icon_ScrollBar/normal</title>
    <g id="icon_ScrollBar/normal" stroke="none" stroke-width="1" fill="none" fill-rule="evenodd">
        <path d="M14,1 C14.5522847,1 15,1.44771525 15,2 L15,14 C15,14.5522847 14.5522847,15 14,15 L2,15 C1.44771525,15 1,14.5522847 1,14 L1,2 C1,1.44771525 1.44771525,1 2,1 L14,1 Z M11.5,13 L3.5,13 C3.22385763,13 3,13.2238576 3,13.5 C3,13.7761424 3.22385763,14 3.5,14 L3.5,14 L11.5,14 C11.7761424,14 12,13.7761424 12,13.5 C12,13.2238576 11.7761424,13 11.5,13 L11.5,13 Z M12.5,4 C12.2238576,4 12,4.22385763 12,4.5 L12,4.5 L12,10.5 C12,10.7761424 12.2238576,11 12.5,11 C12.7761424,11 13,10.7761424 13,10.5 L13,10.5 L13,4.5 C13,4.22385763 12.7761424,4 12.5,4 Z" id="形状结合" fill="#626E88"></path>
    </g>
</svg>