<?xml version="1.0" encoding="UTF-8"?>
<svg width="18px" height="18px" viewBox="0 0 18 18" version="1.1" xmlns="http://www.w3.org/2000/svg" xmlns:xlink="http://www.w3.org/1999/xlink">
    <title>huanyuan_dark</title>
    <g id="huanyuan_dark" stroke="none" stroke-width="1" fill="none" fill-rule="evenodd">
        <g id="适合窗口" fill="#C5CFE0">
            <path d="M2.99253976,0 C1.33980569,0 0,1.35292554 0,2.99253976 L0,15.0074602 C0,16.6601943 1.35292554,18 2.99253976,18 L15.0074602,18 C16.6601943,18 18,16.6470745 18,15.0074602 L18,2.99253976 C18,1.33980569 16.6470745,0 15.0074602,0 L2.99253976,0 Z M15.0059397,1 C16.1072288,1 17,1.89451376 17,2.99406028 L17,15.0059397 C17,16.1072288 16.1054862,17 15.0059397,17 L2.99406028,17 C1.8927712,17 1,16.1054862 1,15.0059397 L1,2.99406028 C1,1.8927712 1.89451376,1 2.99406028,1 L15.0059397,1 Z" id="rect34584"></path>
            <path d="M6,11 C6.55228475,11 7,11.4477153 7,12 L7,12 L7,14.5 C7,14.7761424 6.77614237,15 6.5,15 C6.22385763,15 6,14.7761424 6,14.5 L6,14.5 L6,12.4 C6,12.1790861 5.8209139,12 5.6,12 L5.6,12 L3.5,12 C3.22385763,12 3,11.7761424 3,11.5 C3,11.2238576 3.22385763,11 3.5,11 L3.5,11 Z M14.5,11 C14.7761424,11 15,11.2238576 15,11.5 C15,11.7761424 14.7761424,12 14.5,12 L12.4,12 C12.1790861,12 12,12.1790861 12,12.4 L12,14.5 C12,14.7761424 11.7761424,15 11.5,15 C11.2238576,15 11,14.7761424 11,14.5 L11,12 C11,11.4477153 11.4477153,11 12,11 L14.5,11 Z M6.5,3 C6.77614237,3 7,3.22385763 7,3.5 L7,6 C7,6.55228475 6.55228475,7 6,7 L3.5,7 C3.22385763,7 3,6.77614237 3,6.5 C3,6.22385763 3.22385763,6 3.5,6 L5.6,6 C5.8209139,6 6,5.8209139 6,5.6 L6,3.5 C6,3.22385763 6.22385763,3 6.5,3 Z M11.5,3 C11.7761424,3 12,3.22385763 12,3.5 L12,3.5 L12,5.6 C12,5.8209139 12.1790861,6 12.4,6 L12.4,6 L14.5,6 C14.7761424,6 15,6.22385763 15,6.5 C15,6.77614237 14.7761424,7 14.5,7 L14.5,7 L12,7 C11.4477153,7 11,6.55228475 11,6 L11,6 L11,3.5 C11,3.22385763 11.2238576,3 11.5,3 Z" id="形状结合"></path>
        </g>
    </g>
</svg>