<?xml version="1.0" encoding="UTF-8"?>
<svg width="36px" height="36px" viewBox="0 0 36 36" version="1.1" xmlns="http://www.w3.org/2000/svg" xmlns:xlink="http://www.w3.org/1999/xlink">
    <title>还原_normal_dark</title>
    <defs>
        <filter color-interpolation-filters="auto" id="filter-1">
            <feColorMatrix in="SourceGraphic" type="matrix" values="0 0 0 0 0.774103 0 0 0 0 0.813135 0 0 0 0 0.879671 0 0 0 1.000000 0"></feColorMatrix>
        </filter>
    </defs>
    <g id="1050分屏" stroke="none" stroke-width="1" fill="none" fill-rule="evenodd">
        <g id="编组-3备份-2" transform="translate(18.000000, 18.000000) scale(-1, 1) translate(-18.000000, -18.000000) translate(0.000000, -0.000000)">
            <rect id="矩形备份" fill-opacity="0" fill="#FFFFFF" x="0" y="0" width="36" height="36" rx="8"></rect>
            <g filter="url(#filter-1)" id="Group">
                <g transform="translate(8.000000, 11.000000)">
                    <path d="M18,0 C19.1045695,-2.02906125e-16 20,0.8954305 20,2 L20,13 C20,14.1045695 19.1045695,15 18,15 L2,15 C0.8954305,15 1.3527075e-16,14.1045695 0,13 L0,2 C-1.3527075e-16,0.8954305 0.8954305,2.02906125e-16 2,0 L18,0 Z M18,1 L2,1 C1.44771525,1 1,1.44771525 1,2 L1,13 C1,13.5522847 1.44771525,14 2,14 L18,14 C18.5522847,14 19,13.5522847 19,13 L19,2 C19,1.44771525 18.5522847,1 18,1 Z M17,2 C17.5522847,2 18,2.44771525 18,3 L18,12 C18,12.5522847 17.5522847,13 17,13 L3,13 C2.44771525,13 2,12.5522847 2,12 L2,3 C2,2.44771525 2.44771525,2 3,2 L17,2 Z" id="Combined-Shape" fill="#000000" fill-rule="nonzero"></path>
                </g>
            </g>
        </g>
    </g>
</svg>