<?xml version="1.0" encoding="UTF-8"?>
<svg width="16px" height="16px" viewBox="0 0 16 16" version="1.1" xmlns="http://www.w3.org/2000/svg" xmlns:xlink="http://www.w3.org/1999/xlink">
    <title>icon_ListView/normal</title>
    <g id="Symbols" stroke="none" stroke-width="1" fill="none" fill-rule="evenodd">
        <g id="icon_ListView/normal" fill="#626E88" fill-rule="nonzero">
            <g id="listview-icon" transform="translate(1.000000, 1.000000)">
                <path d="M3.5,1 L13.5,1 C13.7761424,1 14,0.776142375 14,0.5 C14,0.223857625 13.7761424,-5.07265313e-17 13.5,0 L3.5,0 C3.22385763,5.07265313e-17 3,0.223857625 3,0.5 C3,0.776142375 3.22385763,1 3.5,1 Z" id="Line"></path>
                <path d="M3.5,5 L13.5,5 C13.7761424,5 14,4.77614237 14,4.5 C14,4.22385763 13.7761424,4 13.5,4 L3.5,4 C3.22385763,4 3,4.22385763 3,4.5 C3,4.77614237 3.22385763,5 3.5,5 Z" id="Line"></path>
                <path d="M3.5,9 L13.5,9 C13.7761424,9 14,8.77614237 14,8.5 C14,8.22385763 13.7761424,8 13.5,8 L3.5,8 C3.22385763,8 3,8.22385763 3,8.5 C3,8.77614237 3.22385763,9 3.5,9 Z" id="Line"></path>
                <path d="M3.5,13 L13.5,13 C13.7761424,13 14,12.7761424 14,12.5 C14,12.2238576 13.7761424,12 13.5,12 L3.5,12 C3.22385763,12 3,12.2238576 3,12.5 C3,12.7761424 3.22385763,13 3.5,13 Z" id="Line"></path>
                <path d="M0.5,1 L1.5,1 C1.77614237,1 2,0.776142375 2,0.5 C2,0.223857625 1.77614237,-5.07265313e-17 1.5,0 L0.5,0 C0.223857625,5.07265313e-17 -3.38176876e-17,0.223857625 0,0.5 C3.38176876e-17,0.776142375 0.223857625,1 0.5,1 Z" id="Line"></path>
                <path d="M0.5,5 L1.5,5 C1.77614237,5 2,4.77614237 2,4.5 C2,4.22385763 1.77614237,4 1.5,4 L0.5,4 C0.223857625,4 -3.38176876e-17,4.22385763 0,4.5 C3.38176876e-17,4.77614237 0.223857625,5 0.5,5 Z" id="Line"></path>
                <path d="M0.5,9 L1.5,9 C1.77614237,9 2,8.77614237 2,8.5 C2,8.22385763 1.77614237,8 1.5,8 L0.5,8 C0.223857625,8 -3.38176876e-17,8.22385763 0,8.5 C3.38176876e-17,8.77614237 0.223857625,9 0.5,9 Z" id="Line"></path>
                <path d="M0.5,13 L1.5,13 C1.77614237,13 2,12.7761424 2,12.5 C2,12.2238576 1.77614237,12 1.5,12 L0.5,12 C0.223857625,12 -3.38176876e-17,12.2238576 0,12.5 C3.38176876e-17,12.7761424 0.223857625,13 0.5,13 Z" id="Line"></path>
            </g>
        </g>
    </g>
</svg>