<?xml version="1.0" encoding="UTF-8"?>
<svg width="16px" height="16px" viewBox="0 0 16 16" version="1.1" xmlns="http://www.w3.org/2000/svg" xmlns:xlink="http://www.w3.org/1999/xlink">
    <title>icon_Window/normal</title>
    <g id="icon_Window/normal" stroke="none" stroke-width="1" fill="none" fill-rule="evenodd">
        <g id="window-icon" transform="translate(1.000000, 1.000000)" fill="#626E88">
            <path d="M1,0 L13,0 C13.5522847,-1.01453063e-16 14,0.44771525 14,1 L14,2 L14,2 L0,2 L0,1 C-6.76353751e-17,0.44771525 0.44771525,1.01453063e-16 1,0 Z" id="矩形"></path>
            <rect id="矩形" x="0" y="3" width="2" height="8"></rect>
            <path d="M0,12 L14,12 C14,12.5522847 13.5522847,13 13,13 L1,13 C0.44771525,13 6.76353751e-17,12.5522847 0,12 L0,12 L0,12 Z" id="矩形"></path>
            <rect id="矩形" x="3" y="3" width="11" height="8"></rect>
        </g>
    </g>
</svg>