<?xml version="1.0" encoding="UTF-8"?>
<svg width="16px" height="16px" viewBox="0 0 16 16" version="1.1" xmlns="http://www.w3.org/2000/svg" xmlns:xlink="http://www.w3.org/1999/xlink">
    <title>icon_slider/normal</title>
    <g id="icon_slider/normal" stroke="none" stroke-width="1" fill="none" fill-rule="evenodd">
        <path d="M10,4 C11.8639271,4 13.4300871,5.27489272 13.8740452,7.00024347 L15,7 C15.5522847,7 16,7.44771525 16,8 C16,8.51283584 15.6139598,8.93550716 15.1166211,8.99327227 L15,9 L15,9 L13.8737865,9.00076134 C13.429479,10.7256022 11.8635652,12 10,12 C8.13643475,12 6.57052105,10.7256022 6.12621352,9.00076134 L1,9 C0.44771525,9 6.76353751e-17,8.55228475 0,8 C-6.76353751e-17,7.44771525 0.44771525,7 1,7 L6.12595483,7.00024347 C6.56991294,5.27489272 8.13607289,4 10,4 Z" id="形状结合" fill="#626E88"></path>
    </g>
</svg>