<?xml version="1.0" encoding="UTF-8"?>
<svg width="16px" height="16px" viewBox="0 0 16 16" version="1.1" xmlns="http://www.w3.org/2000/svg" xmlns:xlink="http://www.w3.org/1999/xlink">
    <title>icon_menu/normal</title>
    <g id="icon_menu/normal" stroke="none" stroke-width="1" fill="none" fill-rule="evenodd">
        <g id="menu-icon" transform="translate(1.000000, 1.000000)">
            <rect id="Rectangle-4" stroke="#626E88" x="0.5" y="0.5" width="13" height="13" rx="1"></rect>
            <path d="M3.5,3 L10.5,3 C10.7761424,3 11,2.77614237 11,2.5 C11,2.22385763 10.7761424,2 10.5,2 L3.5,2 C3.22385763,2 3,2.22385763 3,2.5 C3,2.77614237 3.22385763,3 3.5,3 Z" id="Line" fill="#626E88" fill-rule="nonzero"></path>
            <path d="M3.5,6 L10.5,6 C10.7761424,6 11,5.77614237 11,5.5 C11,5.22385763 10.7761424,5 10.5,5 L3.5,5 C3.22385763,5 3,5.22385763 3,5.5 C3,5.77614237 3.22385763,6 3.5,6 Z" id="Line备份" fill="#626E88" fill-rule="nonzero"></path>
            <path d="M3.5,9 L10.5,9 C10.7761424,9 11,8.77614237 11,8.5 C11,8.22385763 10.7761424,8 10.5,8 L3.5,8 C3.22385763,8 3,8.22385763 3,8.5 C3,8.77614237 3.22385763,9 3.5,9 Z" id="Line备份-2" fill="#626E88" fill-rule="nonzero"></path>
            <path d="M3.5,12 L10.5,12 C10.7761424,12 11,11.7761424 11,11.5 C11,11.2238576 10.7761424,11 10.5,11 L3.5,11 C3.22385763,11 3,11.2238576 3,11.5 C3,11.7761424 3.22385763,12 3.5,12 Z" id="Line备份-2" fill="#626E88" fill-rule="nonzero"></path>
        </g>
    </g>
</svg>