<?xml version="1.0" encoding="UTF-8"?>
<svg width="16px" height="16px" viewBox="0 0 16 16" version="1.1" xmlns="http://www.w3.org/2000/svg" xmlns:xlink="http://www.w3.org/1999/xlink">
    <title>icon_Widget/normal</title>
    <g id="icon_Widget/normal" stroke="none" stroke-width="1" fill="none" fill-rule="evenodd">
        <g id="widget-icon" transform="translate(1.000000, 1.000000)" fill="#626E88">
            <path d="M12,0 C13.1045695,-2.02906125e-16 14,0.8954305 14,2 L14,12 C14,13.1045695 13.1045695,14 12,14 L2,14 C0.8954305,14 1.3527075e-16,13.1045695 0,12 L0,2 C-1.3527075e-16,0.8954305 0.8954305,2.02906125e-16 2,0 L12,0 Z M13,11 L11,11 L10.999,12 L13,12 L13,11 Z M3,11 L1,11 L1,12 L2.999,12 L3,11 Z M10,11 L4,11 L3.999,12 L9.999,12 L10,11 Z M13,8 L11,8 L10.999,9 L13,9 L13,8 Z M3,8 L1,8 L1,9 L2.999,9 L3,8 Z M10,8 L4,8 L3.999,9 L9.999,9 L10,8 Z M13,5 L11,5 L10.999,6 L13,6 L13,5 Z M3,5 L1,5 L1,6 L2.999,6 L3,5 Z M10,5 L4,5 L3.999,6 L9.999,6 L10,5 Z M13,2 L11,2 L10.999,3 L13,3 L13,2 Z M3,2 L1,2 L1,3 L2.999,3 L3,2 Z M10,2 L4,2 L3.999,3 L9.999,3 L10,2 Z" id="形状结合"></path>
        </g>
    </g>
</svg>